<svg xmlns="http://www.w3.org/2000/svg" viewBox="0 0 400 300">
  <defs>
    <linearGradient id="mth-doc" x1="0" y1="0" x2="0" y2="1">
      <stop offset="0" stop-color="#1f1346"/>
      <stop offset="1" stop-color="#160d32"/>
    </linearGradient>
    <filter id="mth-glow" x="-30%" y="-30%" width="160%" height="160%">
      <feDropShadow dx="0" dy="8" stdDeviation="12" flood-color="#9d7cf5" flood-opacity="0.4"/>
    </filter>
  </defs>

  <!-- clipboard / structured spec -->
  <g filter="url(#mth-glow)">
    <rect x="110" y="46" width="180" height="208" rx="16" fill="url(#mth-doc)" stroke="#9d7cf5" stroke-width="2"/>
  </g>
  <!-- clip -->
  <rect x="168" y="34" width="64" height="26" rx="8" fill="#9d7cf5"/>

  <!-- title bar -->
  <rect x="132" y="78" width="92" height="12" rx="6" fill="#b8a3ff"/>

  <!-- structured checklist rows -->
  <g>
    <!-- row 1 done -->
    <rect x="132" y="110" width="26" height="26" rx="7" fill="rgba(110,231,183,0.15)" stroke="#6ee7b7" stroke-width="3"/>
    <path d="M138 123 l5 6 l10 -12" fill="none" stroke="#6ee7b7" stroke-width="3.5" stroke-linecap="round" stroke-linejoin="round"/>
    <rect x="170" y="116" width="98" height="9" rx="4.5" fill="#6a5da0"/>

    <!-- row 2 done -->
    <rect x="132" y="150" width="26" height="26" rx="7" fill="rgba(110,231,183,0.15)" stroke="#6ee7b7" stroke-width="3"/>
    <path d="M138 163 l5 6 l10 -12" fill="none" stroke="#6ee7b7" stroke-width="3.5" stroke-linecap="round" stroke-linejoin="round"/>
    <rect x="170" y="156" width="80" height="9" rx="4.5" fill="#6a5da0"/>

    <!-- row 3 pending -->
    <rect x="132" y="190" width="26" height="26" rx="7" fill="none" stroke="#9d7cf5" stroke-width="3"/>
    <rect x="170" y="196" width="98" height="9" rx="4.5" fill="#4a4076"/>

    <!-- row 4 pending -->
    <rect x="132" y="226" width="26" height="26" rx="7" fill="none" stroke="#9d7cf5" stroke-width="3"/>
    <rect x="170" y="232" width="68" height="9" rx="4.5" fill="#4a4076"/>
  </g>
</svg>
