<svg xmlns="http://www.w3.org/2000/svg" viewBox="0 0 1000 340">
  <rect width="1000" height="340" fill="#0e0824"/>

  <!-- Title bar -->
  <rect width="1000" height="36" fill="#1a1233"/>
  <line x1="0" y1="36" x2="1000" y2="36" stroke="#2a1f4e" stroke-width="1"/>
  <circle cx="18" cy="18" r="6" fill="#ff5f56"/>
  <circle cx="38" cy="18" r="6" fill="#ffbd2e"/>
  <circle cx="58" cy="18" r="6" fill="#27c93f"/>
  <text x="500" y="23" text-anchor="middle" font-family="'Courier New', monospace" font-size="12" fill="#b9b3d6">opencode</text>
  <rect x="882" y="8" width="100" height="20" rx="4" fill="rgba(110,231,183,0.13)"/>
  <text x="932" y="22" text-anchor="middle" font-family="system-ui, sans-serif" font-size="10" font-weight="700" letter-spacing="1.5" fill="#6ee7b7">BUILD</text>

  <!-- User prompt -->
  <text x="24" y="65" font-family="'Courier New', monospace" font-size="13" fill="#6ee7b7">›</text>
  <text x="42" y="65" font-family="'Courier New', monospace" font-size="13" fill="#ece9ff">Aplicá el cambio 1: clampear resultado</text>

  <!-- File label -->
  <text x="24" y="96" font-family="'Courier New', monospace" font-size="12" fill="#b8a3ff">✎  Edit  src/coupon.ts</text>

  <!-- Diff box -->
  <rect x="24" y="110" width="870" height="148" rx="8" fill="rgba(20,10,45,0.85)" stroke="rgba(157,124,245,0.2)" stroke-width="1"/>

  <text x="44" y="136" font-family="'Courier New', monospace" font-size="12" fill="#5d568a">  function applyCoupon(cartTotal, coupon) {</text>
  <text x="44" y="158" font-family="'Courier New', monospace" font-size="12" fill="#5d568a">    if (coupon.type === 'percentage') { ... }</text>

  <rect x="28" y="165" width="866" height="22" rx="2" fill="rgba(255,139,139,0.09)"/>
  <text x="44" y="180" font-family="'Courier New', monospace" font-size="12" fill="#ff8b8b">-   return cartTotal - coupon.value;</text>

  <rect x="28" y="188" width="866" height="22" rx="2" fill="rgba(110,231,183,0.09)"/>
  <text x="44" y="203" font-family="'Courier New', monospace" font-size="12" fill="#6ee7b7">+   return Math.max(0, cartTotal - coupon.value);</text>

  <text x="44" y="228" font-family="'Courier New', monospace" font-size="12" fill="#5d568a">  }</text>
  <line x1="44" y1="240" x2="854" y2="240" stroke="rgba(157,124,245,0.12)" stroke-width="1"/>
  <text x="44" y="252" font-family="'Courier New', monospace" font-size="11" fill="#5d568a">+1 / -1  ·  src/coupon.ts</text>

  <!-- Success -->
  <text x="24" y="286" font-family="'Courier New', monospace" font-size="13" fill="#6ee7b7">✓  1 archivo modificado · criterio 1/3 aplicado</text>

  <!-- Bottom bar -->
  <rect y="304" width="1000" height="36" fill="#1a1233"/>
  <line x1="0" y1="304" x2="1000" y2="304" stroke="rgba(157,124,245,0.15)" stroke-width="1"/>
  <text x="24" y="327" font-family="'Courier New', monospace" font-size="13" fill="#6ee7b7">›</text>
  <rect x="42" y="314" width="7" height="14" rx="1" fill="#6ee7b7" opacity="0.7"/>
</svg>
